<?xml version="1.0" standalone="no"?>
<!DOCTYPE svg PUBLIC "-//W3C//DTD SVG 20010904//EN"
 "http://www.w3.org/TR/2001/REC-SVG-20010904/DTD/svg10.dtd">
<svg version="1.0" xmlns="http://www.w3.org/2000/svg"
 width="347.000000pt" height="177.000000pt" viewBox="0 0 347.000000 177.000000"
 preserveAspectRatio="xMidYMid meet">

<g transform="translate(0.000000,177.000000) scale(0.100000,-0.100000)"
fill="#000000" stroke="none">
<path d="M1307 1533 c-12 -12 -7 -41 8 -47 22 -8 49 23 34 40 -12 15 -31 18
-42 7z"/>
<path d="M1627 1533 c-12 -12 -7 -41 8 -47 22 -8 49 23 34 40 -12 15 -31 18
-42 7z"/>
<path d="M1467 1513 c-4 -3 -7 -21 -7 -40 0 -30 -3 -33 -30 -33 -39 0 -41 -27
-2 -32 l27 -3 5 -107 c3 -58 8 -109 11 -113 4 -3 23 -9 43 -12 29 -4 36 -2 36
11 0 9 -8 16 -18 16 -34 0 -42 21 -42 117 l0 93 35 0 c24 0 35 5 35 15 0 10
-11 15 -35 15 -34 0 -35 1 -35 40 0 38 -8 49 -23 33z"/>
<path d="M762 1424 c-70 -48 -70 -190 0 -238 28 -20 100 -21 137 -1 76 39 81
190 8 238 -33 22 -115 22 -145 1z m130 -31 c44 -40 43 -137 -2 -178 -52 -47
-136 -6 -147 72 -13 100 81 167 149 106z"/>
<path d="M1042 1420 c-29 -28 -29 -75 1 -94 12 -8 47 -21 78 -30 63 -18 84
-36 74 -65 -14 -45 -120 -47 -140 -3 -10 22 -45 31 -45 11 0 -6 13 -24 29 -40
26 -26 36 -29 90 -29 73 0 101 20 101 74 0 42 -22 60 -103 83 -64 18 -84 40
-63 69 21 28 94 26 114 -4 16 -24 42 -30 42 -9 0 8 -10 23 -23 35 -32 30 -123
31 -155 2z"/>
<path d="M1310 1305 c0 -113 2 -135 15 -135 13 0 15 22 15 135 0 113 -2 135
-15 135 -13 0 -15 -22 -15 -135z"/>
<path d="M1630 1305 c0 -113 2 -135 15 -135 13 0 15 22 15 135 0 113 -2 135
-15 135 -13 0 -15 -22 -15 -135z"/>
<path d="M1720 1433 c1 -5 22 -64 48 -133 65 -171 72 -171 136 0 27 72 46 133
43 136 -17 17 -37 -13 -66 -98 -18 -51 -36 -99 -40 -107 -5 -8 -22 28 -46 98
-30 87 -42 111 -57 111 -10 0 -18 -3 -18 -7z"/>
<path d="M2026 1415 c-48 -44 -60 -118 -30 -181 21 -43 59 -64 119 -64 38 0
52 5 76 29 16 16 29 34 29 40 0 18 -28 12 -43 -9 -17 -25 -62 -42 -93 -34 -31
8 -64 49 -64 80 0 24 1 24 105 24 115 0 112 -2 95 62 -15 54 -51 78 -115 78
-41 0 -57 -5 -79 -25z m111 -5 c29 -11 53 -45 53 -75 0 -12 -17 -15 -85 -15
-75 0 -85 2 -85 18 0 24 28 62 54 72 28 12 28 12 63 0z"/>
<path d="M1300 770 c0 -183 1 -190 20 -190 19 0 20 7 20 190 0 183 -1 190 -20
190 -19 0 -20 -7 -20 -190z"/>
<path d="M1420 770 c0 -183 1 -190 20 -190 19 0 20 7 20 190 0 183 -1 190 -20
190 -19 0 -20 -7 -20 -190z"/>
<path d="M1557 943 c-12 -12 -7 -41 8 -47 22 -8 49 23 34 40 -12 15 -31 18
-42 7z"/>
<path d="M857 923 c-4 -3 -7 -21 -7 -40 0 -30 -3 -33 -30 -33 -39 0 -41 -27
-2 -32 l27 -3 5 -107 c3 -58 8 -109 11 -113 4 -3 23 -9 43 -12 29 -4 36 -2 36
11 0 9 -8 16 -18 16 -34 0 -42 21 -42 117 l0 93 35 0 c24 0 35 5 35 15 0 10
-11 15 -35 15 -34 0 -35 1 -35 40 0 38 -8 49 -23 33z"/>
<path d="M530 715 c0 -113 2 -135 15 -135 12 0 15 17 15 96 0 93 1 96 30 126
25 24 36 29 58 24 51 -13 62 -38 62 -147 0 -92 1 -99 20 -99 18 0 20 7 20 88
0 101 -13 158 -40 172 -32 17 -95 12 -124 -11 l-26 -20 0 20 c0 12 -6 21 -15
21 -13 0 -15 -22 -15 -135z"/>
<path d="M1036 825 c-48 -44 -60 -118 -30 -181 21 -43 59 -64 119 -64 38 0 52
5 76 29 16 16 29 34 29 40 0 18 -28 12 -43 -9 -17 -25 -62 -42 -93 -34 -31 8
-64 49 -64 80 0 24 1 24 105 24 115 0 112 -2 95 62 -15 54 -51 78 -115 78 -41
0 -57 -5 -79 -25z m111 -5 c29 -11 53 -45 53 -75 0 -12 -17 -15 -85 -15 -75 0
-85 2 -85 18 0 24 28 62 54 72 28 12 28 12 63 0z"/>
<path d="M1560 715 c0 -113 2 -135 15 -135 13 0 15 22 15 135 0 113 -2 135
-15 135 -13 0 -15 -22 -15 -135z"/>
<path d="M1701 815 c-27 -31 -31 -43 -31 -95 0 -79 32 -119 101 -127 39 -4 50
-1 78 23 l34 28 -5 -54 c-4 -40 -11 -58 -28 -72 -33 -26 -86 -23 -116 7 -25
25 -54 33 -54 16 0 -6 11 -22 24 -38 21 -24 31 -27 86 -28 57 0 64 2 91 33
l29 32 0 155 c0 131 -2 155 -15 155 -8 0 -15 -9 -15 -20 0 -11 -2 -20 -5 -20
-3 0 -14 9 -25 20 -15 15 -33 20 -69 20 -43 0 -52 -4 -80 -35z m128 0 c36 -18
55 -64 48 -112 -18 -108 -152 -113 -173 -6 -9 44 12 100 44 118 34 18 47 18
81 0z"/>
<path d="M2016 825 c-48 -44 -60 -118 -30 -181 21 -43 59 -64 119 -64 38 0 52
5 76 29 16 16 29 34 29 40 0 18 -28 12 -43 -9 -17 -25 -62 -42 -93 -34 -31 8
-64 49 -64 80 0 24 1 24 105 24 115 0 112 -2 95 62 -15 54 -51 78 -115 78 -41
0 -57 -5 -79 -25z m111 -5 c29 -11 53 -45 53 -75 0 -12 -17 -15 -85 -15 -75 0
-85 2 -85 18 0 24 28 62 54 72 28 12 28 12 63 0z"/>
<path d="M2280 715 c0 -113 2 -135 15 -135 12 0 15 17 15 96 0 93 1 96 30 126
25 24 36 29 58 24 51 -13 62 -38 62 -147 0 -92 1 -99 20 -99 18 0 20 7 20 88
0 101 -13 158 -40 172 -32 17 -95 12 -124 -11 l-26 -20 0 20 c0 12 -6 21 -15
21 -13 0 -15 -22 -15 -135z"/>
<path d="M2594 816 c-32 -32 -34 -38 -34 -101 0 -63 2 -69 34 -101 30 -30 40
-34 86 -34 44 0 56 4 81 29 16 16 29 37 29 45 0 23 -28 19 -35 -5 -4 -11 -22
-27 -40 -35 -85 -35 -150 52 -114 155 23 66 115 78 148 20 9 -16 22 -29 29
-29 21 0 13 36 -14 64 -22 22 -36 26 -81 26 -49 0 -59 -4 -89 -34z"/>
<path d="M2886 825 c-48 -44 -60 -118 -30 -181 21 -43 59 -64 119 -64 38 0 52
5 76 29 16 16 29 34 29 40 0 18 -28 12 -43 -9 -17 -25 -62 -42 -93 -34 -31 8
-64 49 -64 80 0 24 1 24 105 24 115 0 112 -2 95 62 -15 54 -51 78 -115 78 -41
0 -57 -5 -79 -25z m111 -5 c29 -11 53 -45 53 -75 0 -12 -17 -15 -85 -15 -75 0
-85 2 -85 18 0 24 28 62 54 72 28 12 28 12 63 0z"/>
</g>
</svg>
